<svg xmlns="http://www.w3.org/2000/svg" viewBox="0 0 400 220" fill="none" role="img" aria-label="A dark street with one working street light">
  <defs><linearGradient id="sS" x1="200" y1="0" x2="200" y2="220" gradientUnits="userSpaceOnUse"><stop stop-color="#1E293B"/><stop offset="1" stop-color="#334155"/></linearGradient>
  <linearGradient id="sG" x1="252" y1="58" x2="252" y2="200" gradientUnits="userSpaceOnUse"><stop stop-color="#FDE68A" stop-opacity=".6"/><stop offset="1" stop-color="#FDE68A" stop-opacity="0"/></linearGradient></defs>
  <rect width="400" height="220" fill="url(#sS)"/>
  <g fill="#FFFFFF" opacity=".55"><circle cx="60" cy="36" r="2"/><circle cx="108" cy="22" r="1.5"/><circle cx="158" cy="44" r="2"/><circle cx="332" cy="28" r="2"/><circle cx="368" cy="58" r="1.5"/><circle cx="286" cy="18" r="1.5"/></g>
  <circle cx="86" cy="42" r="16" fill="#E2E8F0" opacity=".75"/><circle cx="79" cy="38" r="14" fill="#334155"/>
  <path d="M196 58h112v150H196z" fill="url(#sG)"/>
  <path d="M0 176h400v44H0z" fill="#0F172A" opacity=".85"/>
  <path d="M0 172h400v6H0z" fill="#475569" opacity=".6"/>
  <ellipse cx="252" cy="196" rx="76" ry="22" fill="#FDE68A" opacity=".2"/>
  <rect x="248" y="76" width="7" height="110" rx="3" fill="#0F172A"/>
  <rect x="230" y="180" width="44" height="8" rx="4" fill="#0F172A"/>
  <path d="M238 70a14 14 0 0 1 28 0l5 10h-38z" fill="#0F172A"/>
  <ellipse cx="252" cy="78" rx="12" ry="5" fill="#FDE68A"/>
  <g fill="#0F172A"><rect x="96" y="96" width="7" height="90" rx="3"/><rect x="80" y="180" width="40" height="8" rx="4"/><path d="M86 92a13 13 0 0 1 26 0l4 8h-34z"/></g>
  <ellipse cx="99" cy="98" rx="10" ry="4" fill="#475569"/>
  <g fill="#1E293B"><rect x="316" y="84" width="34" height="92" rx="5"/><rect x="356" y="104" width="28" height="72" rx="5"/></g>
  <g fill="#FDE68A" opacity=".35"><rect x="324" y="96" width="8" height="10" rx="2"/><rect x="336" y="120" width="8" height="10" rx="2"/></g>
</svg>
